# xmcd
#
# Track frame offsets: 
#        150
#        11544
#        27909
#        40695
#        52301
#        64492
#        77859
#        92222
#
# Disc length: 1400 seconds
#
# Revision: 0
# Processed by: cddbd v1.5.2PL0 Copyright (c) Steve Scherf et al.
# Submitted via: ExactAudioCopy v0.99pb4
#
DISCID=68057608
DTITLE=Freddy Fender - The Best of Freddy Fender
DYEAR=1985
DGENRE=Classic Country
TTITLE0=Before the Next Teardrop Falls
TTITLE1=Secret Love
TTITLE2=You'll Lose a Good Thing
TTITLE3=Living it Down
TTITLE4=Wasted Days and Wasted Nights
TTITLE5=After the Fire is Gone
TTITLE6=Roses are Red
TTITLE7=I Love My Rancho Grande
EXTD=
EXTT0=
EXTT1=
EXTT2=
EXTT3=
EXTT4=
EXTT5=
EXTT6=
EXTT7=
PLAYORDER=
